<svg xmlns="http://www.w3.org/2000/svg" width="206.513" height="30.669" viewBox="0 0 206.513 30.669"><defs><style>.a{fill:#dd1a21;}.b{fill:#f7b811;}</style></defs><g transform="translate(0 0)"><path class="a" d="M35.215,404.525a3.812,3.812,0,0,1-4.138,3.5h-6.13q-2.75,0-2.943-2.172a5.319,5.319,0,0,1,.075-1.331l.467-2.628H27.8l-.168.876a1.13,1.13,0,0,0-.023.333q.049.543.749.543h.876a.942.942,0,0,0,1.026-.876l.233-1.313a1.737,1.737,0,0,0,.027-.491,2.3,2.3,0,0,0-.585-1.261l-4.825-4.817a3.566,3.566,0,0,1-.871-1.927,2.8,2.8,0,0,1,.025-.7l.952-5.255a3.789,3.789,0,0,1,4.12-3.5h6.13q2.768,0,2.962,2.189a5.106,5.106,0,0,1-.076,1.313l-.634,3.5H32.464l.317-1.752a1.114,1.114,0,0,0,.023-.333q-.048-.543-.749-.543H31.18a.941.941,0,0,0-1.025.876l-.234,1.314a1.736,1.736,0,0,0-.026.491,2.294,2.294,0,0,0,.585,1.261l4.824,4.817a3.568,3.568,0,0,1,.872,1.927,2.819,2.819,0,0,1-.025.7Z" transform="translate(-21.989 -383.489)"/><path class="a" d="M92.623,389.637h5.255L94.59,408.028H89.335Zm6.356-6.13-.785,4.379H92.94l.784-4.379Z" transform="translate(-74.992 -383.489)"/><path class="a" d="M132.465,417.528a1.248,1.248,0,0,0,.023-.333q-.048-.542-.731-.543h-.876a.964.964,0,0,0-1.043.876l-2.352,13.154h-5.254l3.288-18.391h5.254l-.15.876a3.043,3.043,0,0,1,1.9-.876h.876a2.26,2.26,0,0,1,2.328,1.752,3.45,3.45,0,0,1,2.927-1.752h4.379q2.767,0,2.96,2.172a5.1,5.1,0,0,1-.076,1.314l-2.669,14.906h-5.255l2.352-13.154a1.248,1.248,0,0,0,.023-.333q-.048-.542-.731-.543h-.876a.964.964,0,0,0-1.043.876l-2.352,13.154h-5.254Z" transform="translate(-100.882 -406.143)"/><path class="a" d="M236,383.442v-.017l5.256.017h3.5l-.784,4.379h-3.5l-3.6,20.143-5.256-.017,3.607-20.125h-3.5l.784-4.379Z" transform="translate(-186.961 -383.425)"/><path class="a" d="M358.272,419.3l.317-1.752a1.121,1.121,0,0,0,.023-.333q-.048-.543-.749-.543h-.876a.942.942,0,0,0-1.026.876l-.15.876h-5.255l.467-2.628a3.79,3.79,0,0,1,4.12-3.5h6.13q2.767,0,2.962,2.189a5.12,5.12,0,0,1-.076,1.314l-2.671,14.888h-5.255l.15-.876a3.04,3.04,0,0,1-1.9.876h-2.627q-2.75,0-2.943-2.172a5.3,5.3,0,0,1,.075-1.331l.785-4.379a3.789,3.789,0,0,1,4.12-3.5Zm-2.536,4.379a.942.942,0,0,0-1.026.876l-.167.876a1.123,1.123,0,0,0-.023.333q.048.543.749.543h.876a.942.942,0,0,0,1.026-.876l.317-1.751Z" transform="translate(-279.276 -406.143)"/><path class="a" d="M421.5,430.682h-5.254l3.288-18.391h5.254l-.15.876a3.043,3.043,0,0,1,1.9-.876h2.627q2.767,0,2.96,2.172a5.112,5.112,0,0,1-.076,1.314l-2.669,14.906h-5.254l2.352-13.154a1.251,1.251,0,0,0,.023-.333q-.048-.542-.731-.543h-.876a.964.964,0,0,0-1.043.876Z" transform="translate(-332.279 -406.143)"/><path class="a" d="M493.2,430.618h-4.379q-2.75,0-2.943-2.172a5.3,5.3,0,0,1,.075-1.331l2.035-11.4a3.812,3.812,0,0,1,4.137-3.5l2.612.017a2.077,2.077,0,0,1,1.6.876l.15-.876h5.255l-3.755,21.018a3.812,3.812,0,0,1-4.138,3.5h-8.758l.785-4.379H492a.964.964,0,0,0,1.043-.876Zm2.352-13.154a1.25,1.25,0,0,0,.023-.333q-.048-.542-.731-.543h-.876a.965.965,0,0,0-1.043.876l-1.418,7.9a1.118,1.118,0,0,0-.023.333q.048.543.749.543h.876a.942.942,0,0,0,1.026-.876Z" transform="translate(-386.46 -406.079)"/><path class="a" d="M565.612,383.442l-3.605,20.143h5.255l-.785,4.379-10.511-.017,4.39-24.521Z" transform="translate(-442.243 -383.425)"/><path class="a" d="M617.84,412.209h6.131q2.75,0,2.943,2.172a5.32,5.32,0,0,1-.074,1.331l-2.035,11.4a3.812,3.812,0,0,1-4.138,3.5h-6.13q-2.75,0-2.943-2.172a5.288,5.288,0,0,1,.075-1.331l2.035-11.4A3.812,3.812,0,0,1,617.84,412.209Zm.8,5.255-1.418,7.9a1.13,1.13,0,0,0-.023.333q.048.543.749.543h.875a.942.942,0,0,0,1.026-.876l1.417-7.9a1.264,1.264,0,0,0,.023-.333q-.048-.542-.731-.543h-.876A.964.964,0,0,0,618.64,417.464Z" transform="translate(-486.011 -406.079)"/><path class="a" d="M684.177,430.682h-5.255l3.288-18.391h5.255l-.15.876a3.043,3.043,0,0,1,1.9-.876h2.627q2.767,0,2.96,2.172a5.12,5.12,0,0,1-.076,1.314l-2.669,14.906H686.8l2.352-13.154a1.243,1.243,0,0,0,.023-.333q-.048-.542-.731-.543h-.876a.965.965,0,0,0-1.043.876Z" transform="translate(-539.013 -406.143)"/><path class="a" d="M755.875,430.618H751.5q-2.75,0-2.943-2.172a5.32,5.32,0,0,1,.075-1.331l2.035-11.4a3.812,3.812,0,0,1,4.138-3.5l2.612.017a2.077,2.077,0,0,1,1.6.876l.15-.876h5.255l-3.756,21.018a3.812,3.812,0,0,1-4.138,3.5h-8.758l.785-4.379h6.13a.964.964,0,0,0,1.043-.876Zm2.352-13.154a1.258,1.258,0,0,0,.023-.333q-.048-.542-.731-.543h-.876a.964.964,0,0,0-1.043.876l-1.418,7.9a1.132,1.132,0,0,0-.023.333q.049.543.749.543h.876a.942.942,0,0,0,1.026-.876Z" transform="translate(-593.195 -406.079)"/><path class="b" d="M819.432,478.1l5.253-.017-.783,4.4-5.258-.035Z" transform="translate(-648.978 -457.925)"/><path class="b" d="M863.885,430.682l.661-18.391H869.8l-.321,9.2,2.949-9.2h5.255l-5.916,18.391Z" transform="translate(-684.583 -406.143)"/><path class="b" d="M922.266,430.682h-5.254l3.288-18.391h5.255l-.15.876a3.042,3.042,0,0,1,1.9-.876h2.627q2.767,0,2.96,2.172a5.129,5.129,0,0,1-.076,1.314l-2.669,14.906h-5.255l2.352-13.154a1.239,1.239,0,0,0,.023-.333q-.048-.542-.731-.543h-.876a.964.964,0,0,0-1.043.876Z" transform="translate(-726.395 -406.143)"/><g transform="translate(54.19 0.017)"><path class="a" d="M292.316,391.809a2.227,2.227,0,0,0-2.215-2.125,5.737,5.737,0,0,0-.745-.047h-2.627a3.043,3.043,0,0,0-1.9.876l1.252-7.006h-5.255l-2.854,15.941-1.536,8.58h5.254l2.352-13.154a1.279,1.279,0,0,1,.171-.45.847.847,0,0,1,.442-.356,1.261,1.261,0,0,1,.43-.07h.876q.683,0,.731.543a1.247,1.247,0,0,1-.023.333l-2.352,13.154h5.255l2.669-14.906A5.12,5.12,0,0,0,292.316,391.809Z" transform="translate(-276.435 -383.507)"/></g></g></svg>